<?xml version="1.0" standalone="no"?>
<!DOCTYPE svg PUBLIC "-//W3C//DTD SVG 20010904//EN" "http://www.w3.org/TR/2001/REC-SVG-20010904/DTD/svg10.dtd">
<svg version="1.0" xmlns="http://www.w3.org/2000/svg"
    width="1280.000000pt" height="754.000000pt" viewBox="0 0 1280.000000 754.000000"
    preserveAspectRatio="xMidYMid meet">
    <metadata> Created by potrace 1.15, written by Peter Selinger 2001-2017 </metadata>
    <circle cx="50%" cy="50%" r="60%" stroke="black"
        stroke-width="0" fill="#fff" />
    <g transform="translate(0.000000,754.000000) scale(0.100000,-0.100000)"
        fill="#000000" stroke="none">
        <path
            d="M8050 7530 c-30 -4 -95 -15 -145 -23 -49 -9 -178 -23 -285 -32 -107
-9 -205 -18 -217 -21 -35 -7 -199 -121 -233 -162 -30 -36 -30 -37 -30 -164 l0
-127 73 5 c39 2 93 6 118 9 46 4 47 3 65 -36 30 -67 70 -95 150 -103 38 -4
110 -14 161 -23 l92 -16 52 -85 c29 -47 70 -105 91 -128 l39 -42 117 -6 c520
-28 478 -24 589 -67 57 -22 116 -42 133 -45 38 -8 39 -9 89 -139 51 -129 88
-193 143 -239 51 -44 149 -95 263 -136 50 -18 93 -36 96 -39 4 -3 10 -38 14
-77 l7 -72 -50 -12 c-28 -6 -65 -22 -82 -35 l-32 -23 -61 29 c-57 28 -68 30
-137 24 -133 -12 -613 -85 -662 -101 l-48 -16 -249 76 -250 76 -454 0 -455 0
-98 31 c-55 16 -155 44 -224 61 -137 33 -145 33 -380 2 l-125 -17 -165 31
c-250 48 -236 47 -341 17 -52 -14 -303 -102 -559 -195 -400 -145 -476 -169
-545 -175 -133 -12 -159 -23 -335 -142 -281 -190 -268 -176 -419 -467 -71
-138 -142 -274 -157 -302 l-28 -52 -279 -7 -279 -7 -24 -52 c-41 -87 -37 -96
60 -145 85 -41 85 -42 92 -87 3 -25 5 -46 3 -48 -2 -2 -55 -20 -117 -41 l-112
-37 -177 9 -176 8 7 -100 c5 -76 3 -113 -9 -152 l-15 -51 -63 -7 -63 -7 -285
142 c-586 294 -1021 542 -1194 684 -192 157 -381 325 -439 392 -38 44 -137
154 -220 246 l-151 168 -69 0 -68 0 6 -31 c3 -17 6 -44 6 -59 0 -57 302 -433
540 -671 188 -188 260 -243 477 -361 92 -50 465 -255 828 -456 1749 -966 1580
-872 3680 -2062 1788 -1013 1962 -1110 2405 -1338 413 -212 628 -298 850 -340
183 -35 321 -45 507 -39 l173 7 22 -30 c43 -58 176 -85 458 -92 l115 -3 3 30
c11 140 -5 112 207 356 179 207 198 232 241 325 40 86 52 104 82 118 55 26 99
64 115 99 9 18 26 110 38 206 l23 173 56 43 c44 34 71 46 120 55 143 26 263
91 351 189 69 77 158 210 208 309 45 90 137 351 166 472 l18 75 211 210 c116
116 232 238 258 272 52 71 62 112 73 308 4 61 17 160 30 220 12 61 33 164 45
230 36 196 53 242 148 398 47 78 139 246 203 374 129 256 147 315 136 444 -11
134 -70 303 -134 387 -21 29 -26 47 -28 102 -5 160 -122 288 -316 344 -130 38
-414 78 -650 92 l-116 6 -171 172 -171 171 9 40 c5 22 10 57 10 77 0 43 -12
53 -83 63 -38 6 -75 27 -200 116 -83 60 -157 109 -164 109 -7 0 -52 -9 -100
-20 l-87 -21 -26 21 c-14 11 -68 49 -121 85 -176 119 -353 186 -548 207 -94
10 -110 14 -170 51 -107 65 -272 144 -367 176 -97 32 -297 73 -469 95 -102 13
-111 16 -130 42 -85 121 -247 248 -364 285 -74 23 -258 33 -351 19z m-1725
-3115 c121 -8 362 -20 535 -26 l315 -12 34 -26 c90 -70 110 -82 157 -96 71
-22 159 -79 183 -121 l22 -36 -27 -66 c-15 -37 -33 -105 -40 -152 -23 -138
-35 -194 -49 -216 -7 -11 -52 -43 -98 -69 l-85 -49 -60 -136 -59 -135 -117
-70 c-64 -38 -116 -74 -116 -78 0 -5 -16 -59 -35 -120 l-36 -112 -55 -33 c-90
-55 -170 -136 -188 -190 -50 -153 -58 -215 -50 -422 l7 -197 -114 -39 -113
-39 -42 -99 c-24 -54 -45 -100 -48 -103 -4 -5 -2521 1330 -2540 1347 -4 5 64
82 152 172 l160 163 128 64 129 63 307 306 307 305 279 -6 280 -7 102 118 c57
64 110 120 119 124 29 12 430 8 656 -7z m4284 -1381 l31 -6 0 -72 0 -71 -71
-105 c-38 -58 -94 -152 -124 -210 -29 -58 -76 -145 -103 -194 -33 -57 -69
-147 -104 -251 l-53 -163 -61 -30 -60 -30 -31 -86 c-30 -81 -133 -256 -334
-566 -64 -100 -69 -111 -83 -200 -18 -108 -29 -217 -51 -474 -8 -99 -17 -182
-20 -184 -3 -3 -63 -6 -133 -6 -123 0 -132 2 -287 48 -511 153 -574 178 -1040
415 -336 171 -801 416 -818 431 -7 6 103 267 125 296 4 6 53 14 109 17 l101 6
51 -34 c55 -37 94 -45 104 -19 3 8 -2 52 -11 97 -10 54 -16 133 -16 232 l0
150 78 30 c105 40 134 70 180 185 l39 95 92 50 93 50 57 129 57 130 82 41 c45
23 89 49 99 58 10 9 38 57 63 106 41 85 46 91 75 91 27 0 35 -7 61 -52 27 -49
37 -57 129 -103 l100 -50 113 2 c102 2 113 0 108 -15 -2 -9 -10 -43 -16 -76
-7 -32 -25 -81 -42 -109 l-29 -50 24 -24 23 -24 50 18 c59 22 70 46 80 181 l7
89 44 22 c42 20 56 21 426 21 l383 0 125 96 c68 53 138 103 154 110 31 14 170
19 224 8z" />
    </g>
</svg>