<?xml version="1.0" standalone="no"?>
<!DOCTYPE svg PUBLIC "-//W3C//DTD SVG 20010904//EN" "http://www.w3.org/TR/2001/REC-SVG-20010904/DTD/svg10.dtd">
<svg version="1.0" xmlns="http://www.w3.org/2000/svg"
    width="1080.000000pt" height="1280.000000pt" viewBox="0 0 1080.000000 1280.000000"
    preserveAspectRatio="xMidYMid meet">
    <metadata> Created by potrace 1.15, written by Peter Selinger 2001-2017 </metadata>
    <circle cx="50%" cy="50%" r="60%" stroke="black"
        stroke-width="0" fill="#fff" />
    <g transform="translate(0.000000,1280.000000) scale(0.100000,-0.100000)"
        fill="#000000" stroke="none">
        <path
            d="M5705 12317 c-855 -979 -1390 -1573 -1667 -1850 -136 -136 -144 -146
-96 -119 29 16 260 142 514 280 497 270 564 299 753 327 175 27 339 13 513
-41 186 -58 261 -117 555 -436 237 -258 359 -344 523 -369 96 -15 199 -7 420
33 230 41 416 45 527 10 118 -37 205 -77 443 -205 356 -192 473 -235 599 -222
143 15 261 75 362 183 72 77 115 144 163 257 19 42 36 78 38 81 3 2 70 -56
149 -129 797 -734 1270 -1167 1274 -1167 3 0 -34 48 -83 108 -364 445 -953
1231 -1767 2357 -202 281 -376 520 -385 532 l-18 23 -153 -168 c-85 -92 -318
-333 -519 -536 -314 -317 -369 -368 -388 -362 -104 33 -512 604 -1175 1646
-82 129 -152 238 -156 242 -3 3 -195 -210 -426 -475z" />
        <path
            d="M2235 10919 c-145 -27 -312 -109 -430 -213 -110 -95 -213 -260 -256
-408 -26 -92 -36 -278 -20 -373 59 -335 303 -598 647 -697 67 -19 101 -23 229
-22 133 1 160 4 237 27 122 37 207 80 298 148 226 171 344 409 342 694 -1 246
-92 451 -275 621 -118 109 -268 188 -419 218 -84 17 -271 20 -353 5z" />
        <path
            d="M3422 9378 c-170 -97 -270 -176 -448 -353 -221 -219 -278 -304 -343
-507 -67 -210 -101 -514 -101 -897 l0 -221 -940 0 c-812 0 -940 -2 -940 -14 0
-24 50 -156 88 -231 54 -110 126 -207 218 -295 187 -179 406 -278 724 -327
157 -24 563 -24 735 0 341 47 593 166 809 383 l75 74 403 -356 c222 -197 420
-372 441 -391 l38 -34 -149 -157 c-336 -355 -454 -502 -700 -868 -155 -230
-204 -324 -222 -424 -29 -160 36 -364 189 -592 254 -378 968 -1162 1788 -1962
215 -211 259 -258 245 -265 -33 -17 -591 -265 -852 -378 -628 -272 -1185 -498
-2025 -821 -356 -137 -625 -223 -842 -267 -320 -66 -512 -39 -948 135 -217 86
-252 97 -355 110 -177 21 -274 8 -300 -41 -23 -42 9 -198 62 -304 35 -70 99
-144 158 -183 62 -42 400 -163 504 -182 217 -38 618 36 1116 205 468 159 901
334 2780 1120 1101 461 1526 628 2565 1007 939 343 2077 732 2790 953 154 48
286 91 293 94 8 5 -45 34 -135 74 l-148 67 -150 -44 c-1258 -370 -1467 -432
-2535 -753 -393 -118 -726 -216 -740 -219 -22 -4 -32 5 -75 67 -326 472 -698
849 -910 926 -42 16 -66 38 -173 160 -323 370 -545 684 -588 831 -23 77 -13
115 43 165 26 23 78 74 117 112 39 39 114 108 167 155 513 455 940 892 1071
1095 141 218 68 499 -223 859 -38 47 -69 88 -69 91 0 3 460 4 1022 3 l1022 -3
66 -277 c36 -153 67 -278 70 -278 3 0 36 110 74 245 38 135 73 250 76 256 6 9
323 48 823 100 64 7 116 14 114 15 -3 3 -842 134 -857 134 -4 0 -62 119 -130
265 -68 146 -126 265 -129 265 -3 0 -28 -108 -56 -240 l-50 -240 -300 0 c-165
0 -695 3 -1177 7 l-877 6 -118 141 c-568 678 -1145 1303 -1558 1686 -161 149
-414 370 -425 370 -3 0 -47 -24 -98 -52z" />
    </g>
</svg>